<svg class="animated" id="freepik_stories-reading-glasses" xmlns="http://www.w3.org/2000/svg" viewBox="0 0 750 500" version="1.1" xmlns:xlink="http://www.w3.org/1999/xlink" xmlns:svgjs="http://svgjs.com/svgjs"><style>svg#freepik_stories-reading-glasses:not(.animated) .animable {opacity: 0;}svg#freepik_stories-reading-glasses.animated #freepik--background-complete--inject-78 {animation: 1.5s Infinite  linear floating;animation-delay: 0s;}svg#freepik_stories-reading-glasses.animated #freepik--Sheets--inject-78 {animation: 1.5s Infinite  linear floating;animation-delay: 0s;}svg#freepik_stories-reading-glasses.animated #freepik--Book--inject-78 {animation: 1.5s Infinite  linear floating;animation-delay: 0s;}svg#freepik_stories-reading-glasses.animated #freepik--Glasses--inject-78 {animation: 1.5s Infinite  linear floating;animation-delay: 0s;}            @keyframes floating {                0% {                    opacity: 1;                    transform: translateY(0px);                }                50% {                    transform: translateY(-10px);                }                100% {                    opacity: 1;                    transform: translateY(0px);                }            }        </style><g id="freepik--background-complete--inject-78" class="animable" style="transform-origin: 375px 162.325px;"><g id="elwxwi0sg6ry"><rect x="263.35" y="194.71" width="160.71" height="52.27" style="fill: rgb(199, 199, 199); transform-origin: 343.705px 220.845px; transform: rotate(180deg);" class="animable"></rect></g><polygon points="424.06 194.71 424.06 246.98 674.57 246.98 674.57 241.88 669.17 241.88 669.17 199.81 674.57 199.81 674.57 194.71 424.06 194.71" style="fill: rgb(166, 166, 166); transform-origin: 549.315px 220.845px;" id="elam6dgfjqdpa" class="animable"></polygon><g id="el7lyhkj1xrgm"><rect x="430.63" y="200.13" width="238.81" height="41.42" style="fill: rgb(255, 255, 255); transform-origin: 550.035px 220.84px; transform: rotate(180deg);" class="animable"></rect></g><path d="M430.63,241.55c59.53-.17,179.31-.38,238.82-.45l-.45.45,0-41.42c-36.23,1.43-141.32-.18-178.61.29l-59.71-.14c.17-.89,0,41.46,0,41.27Zm0,0c0-.14-.14-41.43-.14-41.56s59.81-.13,59.85-.15l179.11-.21h.5v.5l-.05,41.42V242h-.45c-59.52-.06-179.31-.27-238.82-.45Z" style="fill: rgb(219, 219, 219); transform-origin: 550.22px 220.815px;" id="ele66hkc6er8b" class="animable"></path><path d="M583.74,232.39q27.39.36,54.78.5l30.93.08v-1.15l-30.93.08Q611.13,232,583.74,232.39Z" style="fill: rgb(219, 219, 219); transform-origin: 626.595px 232.395px;" id="elgx7pc6vl52a" class="animable"></path><path d="M430.63,222.6v1.06l39.87.11,57.79-.15q27.39-.13,54.78-.49-27.39-.36-54.78-.49l-57.79-.15Z" style="fill: rgb(219, 219, 219); transform-origin: 506.85px 223.13px;" id="el295etv4xu5p" class="animable"></path><path d="M430.63,207.07v1.28l57-.15q27.41-.13,54.78-.49-27.39-.36-54.78-.49Z" style="fill: rgb(219, 219, 219); transform-origin: 486.52px 207.71px;" id="elwbz7qaz9rzf" class="animable"></path><path d="M430.63,232.5v1.06l15.31,0q27.39-.12,54.79-.49-27.41-.34-54.79-.49Z" style="fill: rgb(219, 219, 219); transform-origin: 465.68px 233.03px;" id="elxnukexsemu" class="animable"></path><path d="M581.91,214.65q27.4.34,54.79.49l32.75.09v-1.16l-32.75.09Q609.29,214.28,581.91,214.65Z" style="fill: rgb(219, 219, 219); transform-origin: 625.68px 214.65px;" id="elrdvm1j0vzc" class="animable"></path><path d="M653.56,218.9q-18.85-.1-37.73-.15l-39.79,0-38.77,0q-18.87,0-37.73.15,18.87.1,37.73.15l38.77,0,39.79,0Q634.7,219,653.56,218.9Z" style="fill: rgb(219, 219, 219); transform-origin: 576.55px 218.9px;" id="elh2z9zzpfhse" class="animable"></path><rect x="477.11" y="155.86" width="160.71" height="38.85" style="fill: rgb(235, 235, 235); transform-origin: 557.465px 175.285px;" id="elomlbrun04yh" class="animable"></rect><polygon points="477.1 194.71 477.1 155.86 226.59 155.86 226.59 159.65 231.99 159.65 231.99 190.92 226.59 190.92 226.59 194.71 477.1 194.71" style="fill: rgb(219, 219, 219); transform-origin: 351.845px 175.285px;" id="elpkn4t236pn" class="animable"></polygon><rect x="231.72" y="159.89" width="238.81" height="30.79" style="fill: rgb(255, 255, 255); transform-origin: 351.125px 175.285px;" id="elpomvat61qur" class="animable"></rect><path d="M470.53,159.89c-59.53.18-179.31.39-238.81.46l.46-.46,0,30.79c-3.16-1.38,119.62.09,118.91-.35,29.74,0,89.68.14,119.41.24-.17.66,0-30.81,0-30.68Zm0,0,.11,30.79v.11h-.11c-29.79.1-89.63.23-119.41.24l-119.4.15h-.5v-.5l0-30.79v-.46h.46c59.52.07,179.31.28,238.81.46Z" style="fill: rgb(219, 219, 219); transform-origin: 350.93px 175.305px;" id="eln1layoizhcp" class="animable"></path><path d="M317.43,166.7q-27.39-.27-54.79-.37l-30.93-.06v.85l30.93-.05Q290,167,317.43,166.7Z" style="fill: rgb(219, 219, 219); transform-origin: 274.57px 166.695px;" id="elghi3m55ug39" class="animable"></path><path d="M470.53,174v-.79l-39.86-.08-57.79.11q-27.39.1-54.79.36,27.39.27,54.79.37l57.79.11Z" style="fill: rgb(219, 219, 219); transform-origin: 394.31px 173.605px;" id="elknzvz31pvob" class="animable"></path><path d="M470.53,185.52v-1l-57,.11q-27.4.1-54.79.37,27.39.25,54.79.36Z" style="fill: rgb(219, 219, 219); transform-origin: 414.635px 185.02px;" id="elv5gj444wbcr" class="animable"></path><path d="M470.53,166.62v-.79l-15.31,0q-27.39.09-54.78.37,27.39.26,54.78.36Z" style="fill: rgb(219, 219, 219); transform-origin: 435.485px 166.225px;" id="el43x2vqfv7jo" class="animable"></path><path d="M319.26,179.89q-27.4-.25-54.8-.37l-32.75-.06v.86l32.75-.07Q291.87,180.16,319.26,179.89Z" style="fill: rgb(219, 219, 219); transform-origin: 275.485px 179.89px;" id="elgs3y6rn25c" class="animable"></path><path d="M247.6,176.73q18.87.08,37.73.11l39.8,0,38.76,0q18.87,0,37.73-.11-18.86-.09-37.73-.11l-38.76,0-39.8,0Q266.46,176.65,247.6,176.73Z" style="fill: rgb(219, 219, 219); transform-origin: 324.61px 176.73px;" id="el2jjf3lgu6hg" class="animable"></path><rect x="103.9" y="77.67" width="223" height="169.31" style="fill: rgb(235, 235, 235); transform-origin: 215.4px 162.325px;" id="el8jwgc6hcj85" class="animable"></rect><rect x="326.9" y="77.67" width="84.75" height="169.31" style="fill: rgb(219, 219, 219); transform-origin: 369.275px 162.325px;" id="elbmktjmenppm" class="animable"></rect><polygon points="103.9 161.67 326.9 161.67 152.75 166.06 103.9 161.67" style="fill: rgb(219, 219, 219); transform-origin: 215.4px 163.865px;" id="elvwoy6qgnr29" class="animable"></polygon><polygon points="326.9 226.37 103.9 226.37 278.06 230.76 326.9 226.37" style="fill: rgb(219, 219, 219); transform-origin: 215.4px 228.565px;" id="elrfdwkwetcf" class="animable"></polygon><polygon points="103.9 113.98 245.16 113.98 119.59 117.56 103.9 113.98" style="fill: rgb(219, 219, 219); transform-origin: 174.53px 115.77px;" id="elvupuqr68k3j" class="animable"></polygon><polygon points="326.9 201.25 185.65 201.25 311.21 204.83 326.9 201.25" style="fill: rgb(219, 219, 219); transform-origin: 256.275px 203.04px;" id="elntjrt742ce" class="animable"></polygon><polygon points="345.62 88.2 204.37 88.2 329.94 91.79 345.62 88.2" style="fill: rgb(219, 219, 219); transform-origin: 274.995px 89.995px;" id="elcdss94h6u3m" class="animable"></polygon><polygon points="200.6 98.93 359.92 98.93 333.36 101.08 200.6 98.93" style="fill: rgb(219, 219, 219); transform-origin: 280.26px 100.005px;" id="el3eng2cfdsxp" class="animable"></polygon><polygon points="125.58 179.96 284.9 179.96 258.34 182.11 125.58 179.96" style="fill: rgb(219, 219, 219); transform-origin: 205.24px 181.035px;" id="eldug60v1iavf" class="animable"></polygon><polygon points="223.55 130.22 326.9 130.22 345.37 135.96 223.55 130.22" style="fill: rgb(235, 235, 235); transform-origin: 284.46px 133.09px;" id="elkc1t8pxpvi" class="animable"></polygon><polygon points="248.46 187.43 351.81 187.43 370.27 193.17 248.46 187.43" style="fill: rgb(235, 235, 235); transform-origin: 309.365px 190.3px;" id="elcvb7yutusik" class="animable"></polygon><polygon points="225.73 212.64 329.08 212.64 347.55 218.38 225.73 212.64" style="fill: rgb(235, 235, 235); transform-origin: 286.64px 215.51px;" id="eluopzm7e7d1t" class="animable"></polygon><polygon points="75.43 130.22 178.78 130.22 197.24 135.96 75.43 130.22" style="fill: rgb(219, 219, 219); transform-origin: 136.335px 133.09px;" id="eldzx9krl3mo" class="animable"></polygon><polygon points="208.04 97.14 104.7 97.14 86.23 102.87 208.04 97.14" style="fill: rgb(235, 235, 235); transform-origin: 147.135px 100.005px;" id="eljgcryw43soo" class="animable"></polygon><polygon points="213.63 198.38 110.28 198.38 91.81 204.12 213.63 198.38" style="fill: rgb(235, 235, 235); transform-origin: 152.72px 201.25px;" id="eliystyf7hh3" class="animable"></polygon><polygon points="208.04 206.91 104.7 206.91 86.23 212.64 208.04 206.91" style="fill: rgb(219, 219, 219); transform-origin: 147.135px 209.775px;" id="elg97rq4qnbwn" class="animable"></polygon><polygon points="326.9 187.43 409.89 187.43 428.36 193.17 326.9 187.43" style="fill: rgb(219, 219, 219); transform-origin: 377.63px 190.3px;" id="elofoj4hbc4qo" class="animable"></polygon><polygon points="355.87 161.67 420.23 161.67 411.65 156.98 355.87 161.67" style="fill: rgb(219, 219, 219); transform-origin: 388.05px 159.325px;" id="elhsq3fv8rc5" class="animable"></polygon></g><g id="freepik--Table--inject-78" class="animable" style="transform-origin: 375px 247px;"><path d="M55.46,247c204.72-.61,434.36-.62,639.08,0-204.72.62-434.36.61-639.08,0Z" style="fill: rgb(38, 50, 56); transform-origin: 375px 247px;" id="elqpwo77zfu2" class="animable"></path></g><g id="freepik--Sheets--inject-78" class="animable animator-active" style="transform-origin: 375.665px 364.87px;"><polygon points="467.45 388.57 566.76 364.16 692.94 381.74 589.34 407.96 467.45 388.57" style="fill: rgb(219, 219, 219); transform-origin: 580.195px 386.06px;" id="elmrd9yxyleti" class="animable"></polygon><path d="M467.45,388.57l99.28-24.52S693,381.51,693,381.5l1.27.17L693,382,589.34,408.1s-121.85-19.54-121.89-19.53Zm0,0s122.08,19.27,121.86,19.26L692.88,381.5l0,.49S566.6,364.26,566.79,364.27l-99.34,24.3Z" style="fill: rgb(219, 219, 219); transform-origin: 580.86px 386.075px;" id="el2s506oghbhu" class="animable"></path><path d="M585.39,401.16c6.11-1.88,12.41-3.63,18.73-5.36s12.74-3.39,19.18-5,13-3.24,19.58-4.77l9.92-2.29c3.38-.72,6.69-1.48,10.11-2.16-3,.95-6.18,1.82-9.27,2.74l-9.45,2.61c-6.3,1.75-12.74,3.4-19.18,5s-13,3.24-19.58,4.77S592.21,399.76,585.39,401.16Z" style="fill: rgb(199, 199, 199); transform-origin: 624.15px 391.37px;" id="elww7aurq82y7" class="animable"></path><path d="M601.8,391.23c7-2.4,14.56-4.46,22.22-6.42S639.58,381,648,379.56c-7,2.41-14.55,4.46-22.22,6.42S610.17,389.75,601.8,391.23Z" style="fill: rgb(199, 199, 199); transform-origin: 624.9px 385.395px;" id="elsfrdaox0px" class="animable"></path><path d="M555.47,397.19c6.11-1.88,12.41-3.63,18.73-5.36s12.74-3.39,19.18-5,13-3.24,19.57-4.77l9.93-2.28c3.37-.72,6.69-1.48,10.11-2.17-3,.95-6.18,1.83-9.27,2.74l-9.45,2.62c-6.31,1.74-12.74,3.39-19.18,5s-13,3.24-19.58,4.77S562.29,395.79,555.47,397.19Z" style="fill: rgb(199, 199, 199); transform-origin: 594.23px 387.4px;" id="elyhwwwq0b9bq" class="animable"></path><path d="M551.65,392.38c10.39-3.26,21.3-6.16,32.34-9s22.3-5.48,34-7.81c-10.39,3.26-21.3,6.16-32.33,9S563.39,390.05,551.65,392.38Z" style="fill: rgb(199, 199, 199); transform-origin: 584.82px 383.975px;" id="eltg2vxo5tm2n" class="animable"></path><path d="M564.63,383.33c5.73-2.08,12-3.81,18.37-5.45s13-3.12,20.07-4.28c-5.73,2.09-12,3.81-18.36,5.45S571.71,382.17,564.63,383.33Z" style="fill: rgb(199, 199, 199); transform-origin: 583.85px 378.465px;" id="el6avb1180885" class="animable"></path><polygon points="57.06 286.06 194.86 259.98 327.83 298.83 190.72 325.85 57.06 286.06" style="fill: rgb(235, 235, 235); transform-origin: 192.445px 292.915px;" id="el11zmxcmswazo" class="animable"></polygon><path d="M57.06,286.06l137.81-26.21s133,38.75,133,38.74l1,.29-1,.2L190.72,326c-.05,0-133.62-39.91-133.66-39.91Zm0,0,133.7,39.66c-.33.07,137.11-27.16,137-27.13l0,.48-132.93-39c.26-.06-137.81,26-137.77,26Z" style="fill: rgb(219, 219, 219); transform-origin: 192.965px 292.925px;" id="eluzlui9ebfy" class="animable"></path><path d="M188.79,317.93c9-2.08,18.07-4,27.18-5.93s18.29-3.77,27.48-5.59,18.43-3.6,27.73-5.29l13.95-2.54c4.69-.8,9.34-1.64,14.07-2.4-4.48,1.05-9,2-13.54,3L272,302.11c-9.1,1.94-18.29,3.77-27.47,5.59s-18.43,3.6-27.73,5.29S198.21,316.39,188.79,317.93Z" style="fill: rgb(219, 219, 219); transform-origin: 243.995px 307.055px;" id="eln50xcugres" class="animable"></path><path d="M224.11,304.1c9.82-2.53,20-4.67,30.21-6.71s20.61-3.9,31.29-5.41c-9.82,2.53-20,4.67-30.21,6.71S234.79,302.59,224.11,304.1Z" style="fill: rgb(219, 219, 219); transform-origin: 254.86px 298.04px;" id="elhar6p9o1rtv" class="animable"></path><path d="M175.2,306.86c7.85-1.86,15.81-3.57,23.79-5.27s16-3.31,24.08-4.92,16.17-3.15,24.34-4.62l12.25-2.2c4.13-.69,8.21-1.42,12.37-2.07-3.91.94-7.89,1.8-11.84,2.7l-11.95,2.57c-8,1.71-16,3.31-24.08,4.92s-16.16,3.14-24.33,4.62S183.5,305.54,175.2,306.86Z" style="fill: rgb(219, 219, 219); transform-origin: 223.615px 297.32px;" id="elpqybmw1ykd8" class="animable"></path><path d="M168.79,301.25c7.25-1.74,14.61-3.34,22-4.92s14.83-3.08,22.29-4.56,15-2.92,22.54-4.27l11.35-2c3.83-.63,7.62-1.3,11.48-1.89-3.61.89-7.3,1.68-10.94,2.53l-11.06,2.39c-7.37,1.59-14.83,3.08-22.29,4.56s-15,2.91-22.54,4.27S176.49,300,168.79,301.25Z" style="fill: rgb(219, 219, 219); transform-origin: 213.62px 292.43px;" id="elfzvnq6zme7c" class="animable"></path><path d="M134.46,301.14c9-2.08,18.07-4,27.18-5.94s18.29-3.76,27.48-5.59,18.43-3.59,27.72-5.29l14-2.54c4.69-.79,9.34-1.64,14.07-2.4-4.48,1.06-9,2-13.54,3l-13.65,2.9c-9.1,1.93-18.29,3.76-27.47,5.59s-18.43,3.59-27.73,5.29S143.88,299.59,134.46,301.14Z" style="fill: rgb(219, 219, 219); transform-origin: 189.685px 290.26px;" id="els6gzhrxytrh" class="animable"></path><path d="M133.32,294.49c7.94-1.88,16-3.61,24.07-5.33s16.22-3.35,24.37-5,16.35-3.19,24.61-4.68l12.4-2.23c4.17-.7,8.31-1.44,12.51-2.09-4,.95-8,1.81-12,2.73l-12.09,2.59c-8.06,1.73-16.21,3.35-24.36,5s-16.36,3.19-24.62,4.68S141.71,293.15,133.32,294.49Z" style="fill: rgb(219, 219, 219); transform-origin: 182.3px 284.825px;" id="el1fsf1iuk2jf" class="animable"></path><path d="M107.29,292.74c9-2.08,18.07-4,27.19-5.93S152.77,283,162,281.22s18.43-3.6,27.73-5.29l13.95-2.54c4.69-.8,9.35-1.64,14.07-2.4-4.48,1.05-9,2-13.53,3l-13.65,2.91c-9.1,1.93-18.29,3.76-27.48,5.58s-18.43,3.6-27.73,5.29S116.72,291.2,107.29,292.74Z" style="fill: rgb(219, 219, 219); transform-origin: 162.52px 281.865px;" id="elegs1yshdcrk" class="animable"></path><path d="M138.86,279.65c10.45-2.66,21.23-4.92,32.09-7.08s21.86-4.15,33.17-5.78c-10.45,2.66-21.22,4.91-32.09,7.08S150.17,278,138.86,279.65Z" style="fill: rgb(219, 219, 219); transform-origin: 171.49px 273.22px;" id="elg2v9z0zifre" class="animable"></path><polygon points="258.98 419.2 434.1 386.06 603.06 435.43 428.83 469.76 258.98 419.2" style="fill: rgb(235, 235, 235); transform-origin: 431.02px 427.91px;" id="eln8qx1bp1u2" class="animable"></polygon><path d="M259,419.2,434.1,385.93s169,49.27,169,49.26l1,.29-1,.2L428.83,469.89C428.78,469.9,259,419.2,259,419.2Zm0,0,169.89,50.44c-.31,0,174.22-34.47,174.14-34.45l0,.48L434.06,386.18c.26-.08-175.12,33.07-175.08,33Z" style="fill: rgb(219, 219, 219); transform-origin: 431.54px 427.91px;" id="elhkwyhej0ew" class="animable"></path><path d="M426.37,459.7c11.41-2.64,23-5.11,34.55-7.54s23.24-4.78,34.91-7.1,23.42-4.57,35.24-6.73l17.73-3.22c6-1,11.87-2.09,17.88-3.05-5.69,1.34-11.47,2.57-17.2,3.86l-17.35,3.68c-11.56,2.46-23.24,4.78-34.91,7.1s-23.42,4.57-35.24,6.72S438.35,457.74,426.37,459.7Z" style="fill: rgb(219, 219, 219); transform-origin: 496.525px 445.88px;" id="elq3j2m3ivyte" class="animable"></path><path d="M471.26,442.12c12.48-3.21,25.38-5.93,38.38-8.52s26.2-5,39.78-6.88c-12.48,3.22-25.39,5.94-38.39,8.53S484.83,440.2,471.26,442.12Z" style="fill: rgb(219, 219, 219); transform-origin: 510.34px 434.42px;" id="elaagam0zdej4" class="animable"></path><path d="M409.11,445.63c10-2.36,20.09-4.54,30.23-6.69s20.37-4.21,30.6-6.25,20.54-4,30.92-5.88l15.58-2.8c5.24-.87,10.43-1.8,15.72-2.62-5,1.2-10,2.29-15,3.43l-15.18,3.26c-10.13,2.17-20.37,4.21-30.6,6.25s-20.55,4-30.93,5.87S419.65,444,409.11,445.63Z" style="fill: rgb(219, 219, 219); transform-origin: 470.635px 433.51px;" id="elzt2rw3ht04q" class="animable"></path><path d="M401,438.5c9.21-2.21,18.57-4.24,28-6.24s18.84-3.92,28.32-5.81,19-3.7,28.64-5.42l14.44-2.58c4.86-.79,9.67-1.65,14.58-2.4-4.59,1.13-9.27,2.14-13.91,3.21l-14.05,3c-9.36,2-18.84,3.91-28.32,5.8s-19,3.7-28.64,5.42S410.74,437,401,438.5Z" style="fill: rgb(219, 219, 219); transform-origin: 457.99px 427.275px;" id="elfj49ullpjc" class="animable"></path><path d="M357.33,438.36c11.41-2.64,23-5.11,34.55-7.54s23.24-4.78,34.91-7.1S450.21,419.15,462,417l17.73-3.22c6-1,11.87-2.09,17.88-3-5.69,1.34-11.47,2.57-17.2,3.86l-17.35,3.68c-11.56,2.46-23.24,4.78-34.91,7.1s-23.42,4.57-35.24,6.72S369.31,436.4,357.33,438.36Z" style="fill: rgb(219, 219, 219); transform-origin: 427.47px 424.57px;" id="elr80wslf6om" class="animable"></path><path d="M355.89,429.91c10.09-2.38,20.33-4.59,30.59-6.76s20.6-4.26,31-6.33,20.78-4.05,31.28-5.94L464.47,408c5.31-.88,10.56-1.82,15.91-2.66-5,1.21-10.15,2.31-15.23,3.47l-15.36,3.3c-10.25,2.19-20.61,4.26-31,6.32s-20.78,4-31.28,5.94S366.55,428.21,355.89,429.91Z" style="fill: rgb(219, 219, 219); transform-origin: 418.135px 417.625px;" id="elldu9qpke2bg" class="animable"></path><path d="M322.81,427.69c11.41-2.64,23-5.11,34.55-7.54s23.24-4.78,34.91-7.1,23.42-4.57,35.24-6.73l17.73-3.22c6-1,11.87-2.09,17.87-3.05-5.68,1.34-11.46,2.57-17.19,3.86l-17.35,3.68c-11.56,2.46-23.24,4.78-34.91,7.1s-23.42,4.57-35.24,6.72S334.79,425.73,322.81,427.69Z" style="fill: rgb(219, 219, 219); transform-origin: 392.96px 413.87px;" id="elah25kouc5oa" class="animable"></path><path d="M362.93,411.05c13.28-3.37,27-6.24,40.77-9s27.79-5.28,42.16-7.35c-13.28,3.38-27,6.25-40.78,9S377.3,409,362.93,411.05Z" style="fill: rgb(219, 219, 219); transform-origin: 404.395px 402.875px;" id="els9eh6pkx6md" class="animable"></path></g><g id="freepik--Book--inject-78" class="animable" style="transform-origin: 370.418px 340.295px;"><path d="M686.9,335.21,362.68,424.79V360.22L686.9,270.64C704.08,302.32,686.9,335.21,686.9,335.21Z" style="fill: rgb(55, 71, 79); transform-origin: 528.608px 347.715px;" id="el281ci4bv1sz" class="animable"></path><polygon points="46.3 380 362.68 424.79 362.68 408.42 75.23 373.26 46.3 375 46.3 380" style="fill: rgb(69, 90, 100); transform-origin: 204.49px 399.025px;" id="el82yziqibjt2" class="animable"></polygon><path d="M362.69,360.52c11.82,28.45,0,64.27,0,64.27L61.56,377.23V321.42Z" style="fill: rgb(69, 90, 100); transform-origin: 214.752px 373.105px;" id="elaf4wuf54pwp" class="animable"></path><path d="M355.24,359.56c11.51,28.34.95,58.86.95,58.86L61.56,377v-55.6Z" style="fill: rgb(255, 255, 255); transform-origin: 211.087px 369.91px;" id="el0mla4587jn0r" class="animable"></path><path d="M355.24,359.56c.39,1.1,1.52,4.2,1.91,5.29a83.2,83.2,0,0,1,3.52,24,100.34,100.34,0,0,1-4.33,29.6c.14.44-294.75-41.11-294.85-41l-.43-.06V377l0-55.6v-.51l.5.07,146.9,19.23,146.72,19.35Zm0,0C283,349.85,131.83,331.93,62,321.42l.05,55.6-.43-.5c0,.11,295.24,41.59,294.4,41.85a95.24,95.24,0,0,0,3.34-14.57c2.23-14.77,1.37-30.27-4.13-44.24Z" style="fill: rgb(219, 219, 219); transform-origin: 210.865px 369.672px;" id="el9spk6bczc6f" class="animable"></path><path d="M204.12,345.5c49.16,6,104.22,13.4,153.21,20.67-49.16-6-104.22-13.41-153.21-20.67Z" style="fill: rgb(219, 219, 219); transform-origin: 280.725px 355.835px;" id="elv3durbrk6ir" class="animable"></path><path d="M61.56,341.76c42.14,5,88.89,11.34,130.88,17.65-42.17-5-88.9-11.32-130.88-17.65Z" style="fill: rgb(219, 219, 219); transform-origin: 127px 350.585px;" id="elfrkj7rb7a3p" class="animable"></path><path d="M68.58,347.25c71.61,9,151.84,19.82,223.26,30.11-71.6-9-151.83-19.82-223.26-30.11Z" style="fill: rgb(219, 219, 219); transform-origin: 180.21px 362.305px;" id="elmnramjtmcun" class="animable"></path><path d="M107.29,366.14c74.28,9.19,157.51,20.23,231.61,30.71-74.27-9.18-157.5-20.23-231.61-30.71Z" style="fill: rgb(219, 219, 219); transform-origin: 223.095px 381.495px;" id="el4thhs2ahxpj" class="animable"></path><path d="M157.22,377.9C222,386,294.65,395.78,359.28,405.16c-64.81-8.08-137.42-17.88-202.06-27.26Z" style="fill: rgb(219, 219, 219); transform-origin: 258.25px 391.53px;" id="elh7ck44dfps4" class="animable"></path><path d="M99,377.79c83,10.58,176,23.12,258.79,34.91-83-10.57-176-23.12-258.79-34.91Z" style="fill: rgb(219, 219, 219); transform-origin: 228.395px 395.245px;" id="el1p3dyvcfyo4j" class="animable"></path><polygon points="362.69 360.52 686.9 270.64 359.28 255.8 46.3 313.84 46.3 319.44 362.69 360.52" style="fill: rgb(69, 90, 100); transform-origin: 366.6px 308.16px;" id="elw5vwmokd529" class="animable"></polygon><path d="M371,350.64c40.22-12.19,81.53-23.2,122.8-32.71-40.21,12.2-81.52,23.19-122.8,32.71Z" style="fill: rgb(55, 71, 79); transform-origin: 432.4px 334.285px;" id="el0qn6by1c8zg" class="animable"></path><path d="M293.22,344.92c11.2.58,22.77,1.88,33.89,3.23s22.6,3,33.5,5.25c-11.2-.57-22.77-1.88-33.88-3.23s-22.6-3.05-33.51-5.25Z" style="fill: rgb(55, 71, 79); transform-origin: 326.915px 349.16px;" id="elx7re36jo429" class="animable"></path><path d="M55,314.93c76.15,8.18,152.91,17.83,228.55,28.76C207.34,335.53,130.59,325.86,55,314.93Z" style="fill: rgb(55, 71, 79); transform-origin: 169.275px 329.31px;" id="eltmfcvf4xhb" class="animable"></path><path d="M583,307.06q47.46-14.91,96.07-27.17Q631.63,294.8,583,307.06Z" style="fill: rgb(69, 90, 100); transform-origin: 631.035px 293.475px;" id="el65jkgbbqh8d" class="animable"></path></g><g id="freepik--Glasses--inject-78" class="animable" style="transform-origin: 362.686px 237.914px;"><path d="M414.89,257.81c-4.2.82-21.54,1.75-21.89-2-.54-5.64,40.93-45.64,55.81-53.16,14.15-7.16,59.74-22.78,71-23.12l.1,35.92c-6.37,1.62-57.12-3.33-67.78,2.33-4.63,2.46-10.76,12.66-23.24,28.86C424.5,252.35,417.37,257.32,414.89,257.81Z" style="fill: rgb(0, 255, 136); transform-origin: 456.452px 219.039px;" id="elu4cso4i2ces" class="animable"></path><g id="el5b0ndvkifnk"><g style="opacity: 0.3; transform-origin: 456.452px 219.039px;" class="animable"><path d="M414.89,257.81c-4.2.82-21.54,1.75-21.89-2-.54-5.64,40.93-45.64,55.81-53.16,14.15-7.16,59.74-22.78,71-23.12l.1,35.92c-6.37,1.62-57.12-3.33-67.78,2.33-4.63,2.46-10.76,12.66-23.24,28.86C424.5,252.35,417.37,257.32,414.89,257.81Z" id="eldsf6chy408u" class="animable" style="transform-origin: 456.452px 219.039px;"></path></g></g><path d="M406.28,257.81c-4.21.82-20.33,1.75-20.69-2-.53-5.64,40.94-45.64,55.81-53.16,14.15-7.16,67.15-22.78,78.41-23.12l.1,35.92c-6.37,1.62-64.52-3.33-75.18,2.33-4.63,2.46-12,12.66-24.46,28.86C415.89,252.35,408.76,257.32,406.28,257.81Z" style="fill: rgb(0, 255, 136); transform-origin: 452.747px 219.039px;" id="el4n2x3v8au57" class="animable"></path><g id="el39ifmwxgvvb"><g style="opacity: 0.2; transform-origin: 452.747px 219.039px;" class="animable"><path d="M406.28,257.81c-4.21.82-20.33,1.75-20.69-2-.53-5.64,40.94-45.64,55.81-53.16,14.15-7.16,67.15-22.78,78.41-23.12l.1,35.92c-6.37,1.62-64.52-3.33-75.18,2.33-4.63,2.46-12,12.66-24.46,28.86C415.89,252.35,408.76,257.32,406.28,257.81Z" id="el88ycvjyeuf5" class="animable" style="transform-origin: 452.747px 219.039px;"></path></g></g><path d="M569.79,305.47c3.62,1.52,17.86,2.29,20.3-.78,3.68-4.65-41.22-67.92-67.6-79.4-24.67-10.65-372.72-78.25-379.9-79.37L142.33,174c48.49,7.58,356.17,56.6,375.2,64.89,12.41,5.39,28.22,33.83,39.58,53.48C561.7,300.35,565.59,303.71,569.79,305.47Z" style="fill: rgb(0, 255, 136); transform-origin: 366.316px 226.361px;" id="el40yk4p8coiq" class="animable"></path><g id="el5qxr3j8up9v"><g style="opacity: 0.2; transform-origin: 366.316px 226.361px;" class="animable"><path d="M569.79,305.47c3.62,1.52,17.86,2.29,20.3-.78,3.68-4.65-41.22-67.92-67.6-79.4-24.67-10.65-372.72-78.25-379.9-79.37L142.33,174c48.49,7.58,356.17,56.6,375.2,64.89,12.41,5.39,28.22,33.83,39.58,53.48C561.7,300.35,565.59,303.71,569.79,305.47Z" id="elbwjpw9dpfrk" class="animable" style="transform-origin: 366.316px 226.361px;"></path></g></g><path d="M563.78,305.47c3.62,1.52,17.86,2.29,20.3-.78,3.68-4.65-40.89-69.45-67.26-80.93C492.14,213.11,149.77,147,142.59,145.92L136.32,174c48.49,7.58,356.17,56.6,375.2,64.89,12.41,5.39,28.22,33.83,39.58,53.48C555.69,300.35,559.58,303.71,563.78,305.47Z" style="fill: rgb(0, 255, 136); transform-origin: 360.307px 226.361px;" id="elkme3k7sjeyp" class="animable"></path><g id="elunt2osrm7dk"><g style="opacity: 0.1; transform-origin: 360.307px 226.361px;" class="animable"><path d="M563.78,305.47c3.62,1.52,17.86,2.29,20.3-.78,3.68-4.65-40.89-69.45-67.26-80.93C492.14,213.11,149.77,147,142.59,145.92L136.32,174c48.49,7.58,356.17,56.6,375.2,64.89,12.41,5.39,28.22,33.83,39.58,53.48C555.69,300.35,559.58,303.71,563.78,305.47Z" id="elhdsularrhrm" class="animable" style="transform-origin: 360.307px 226.361px;"></path></g></g><g id="el4iwbevxv80u"><g style="opacity: 0.1; transform-origin: 325.45px 191.87px;" class="animable"><path d="M210,158.88l-26.34,22.65c-21.91-3.5-38.72-6.15-47.32-7.5l6.26-28.11C144.55,146.22,171.42,151.37,210,158.88Z" id="elrovevqduyu" class="animable" style="transform-origin: 173.17px 163.725px;"></path><path d="M277.36,196.69,261,194h0l-15.2-28.12,24.09,4.76Z" id="el2pirxyo3v56" class="animable" style="transform-origin: 261.58px 181.285px;"></path><path d="M369.5,190.66,351,208.89h0l-16.43-2.76,13.14-19.91Q358.66,188.43,369.5,190.66Z" id="el1prfnfmggam" class="animable" style="transform-origin: 352.035px 197.555px;"></path><path d="M514.56,222.93l-6.37,14.89c-3.06-.86-7.67-1.94-13.6-3.19L490,216.48C501.54,219.2,510.06,221.41,514.56,222.93Z" id="elsx6cojrbyo" class="animable" style="transform-origin: 502.28px 227.15px;"></path></g></g><path d="M208.74,320.18c-36.26-1.75-63.85-42.82-61.51-91.54,1.11-23.25,8.8-44.87,21.64-60.88,13.27-16.54,30.4-25.22,48.4-24.31s34.22,11.11,45.83,28.86c11.25,17.14,16.83,39.41,15.7,62.68-2.22,46.1-30.48,82.8-64.25,85.13A51.1,51.1,0,0,1,208.74,320.18Zm-30.64-145C166.81,189.23,160,208.43,159,229.22c-2,42.2,20.53,77.71,50.29,79.14s55.63-31.74,57.68-74c1-20.79-3.91-40.54-13.78-55.63-9.51-14.49-22.48-22.84-36.52-23.51a37.32,37.32,0,0,0-4.49,0C199.74,156.17,187.78,163.1,178.1,175.16Zm-30.82,59.65c-1.83-35.64,2.16-41.22.54-51.73-.77-5-7.81-9.8-7.81-9.8l6.15-25.59s19.17,1.87,23.59,1.94c7.86.11,24.83-5.63,39.61-6,0,0-32.13,14.44-42.46,32.85S147.28,234.81,147.28,234.81Z" style="fill: rgb(0, 255, 136); transform-origin: 209.477px 231.81px;" id="elv5bvwhxqsoe" class="animable"></path><g id="eljg4npww4at"><path d="M208.74,320.18c-36.26-1.75-63.85-42.82-61.51-91.54,1.11-23.25,8.8-44.87,21.64-60.88,13.27-16.54,30.4-25.22,48.4-24.31s34.22,11.11,45.83,28.86c11.25,17.14,16.83,39.41,15.7,62.68-2.22,46.1-30.48,82.8-64.25,85.13A51.1,51.1,0,0,1,208.74,320.18Zm-30.64-145C166.81,189.23,160,208.43,159,229.22c-2,42.2,20.53,77.71,50.29,79.14s55.63-31.74,57.68-74c1-20.79-3.91-40.54-13.78-55.63-9.51-14.49-22.48-22.84-36.52-23.51a37.32,37.32,0,0,0-4.49,0C199.74,156.17,187.78,163.1,178.1,175.16Zm-30.82,59.65c-1.83-35.64,2.16-41.22.54-51.73-.77-5-7.81-9.8-7.81-9.8l6.15-25.59s19.17,1.87,23.59,1.94c7.86.11,24.83-5.63,39.61-6,0,0-32.13,14.44-42.46,32.85S147.28,234.81,147.28,234.81Z" style="opacity: 0.1; transform-origin: 209.477px 231.81px;" class="animable"></path></g><path d="M203.81,320.18c-36.27-1.75-63.86-42.82-61.52-91.54,1.11-23.25,8.8-44.87,21.64-60.88,13.27-16.54,30.4-25.22,48.4-24.31s34.22,11.11,45.83,28.86c11.25,17.14,16.83,39.41,15.7,62.68-2.22,46.1-30.48,82.8-64.25,85.13A51,51,0,0,1,203.81,320.18Zm-30.65-145c-11.29,14.07-18.06,33.27-19.06,54.06-2,42.2,20.52,77.71,50.28,79.14s55.63-31.74,57.68-74c1-20.79-3.91-40.54-13.78-55.63-9.5-14.49-22.48-22.84-36.52-23.51a37.32,37.32,0,0,0-4.49,0C194.81,156.17,182.84,163.1,173.16,175.16Zm-30.82,59.65c-1.83-35.64,2.16-41.22.54-51.73-.77-5-7.81-9.8-7.81-9.8l6.43-28.52s19.49,3.45,23.9,3.51c7.86.12,24.24-4.27,39-4.6,0,0-32.13,14.44-42.46,32.85S142.34,234.81,142.34,234.81Z" style="fill: rgb(0, 255, 136); transform-origin: 204.537px 231.81px;" id="eli0dbyjfpx7" class="animable"></path><path d="M160.72,157.83c-.23,1.77-3.52,2.79-7.35,2.28s-6.73-2.36-6.49-4.12,3.52-2.79,7.35-2.28S161,156.06,160.72,157.83Z" style="fill: rgb(166, 166, 166); transform-origin: 153.802px 156.91px;" id="ela8oj9hgahuw" class="animable"></path><path d="M148.56,156.05c.31-.85,3.64-1.81,7.28-.83" style="fill: rgb(255, 255, 255); transform-origin: 152.2px 155.428px;" id="el59p12h0jjsy" class="animable"></path><path d="M140,173.53c6.92,3.88,9.88,9.6,9.1,17.52-.77,13.74-2.32,27.35-2.34,41.09a131.7,131.7,0,0,0,1.32,20.5c-4.43-16.74-3.11-34.39-1.55-51.44l1-10.24c1.08-7.66-1.34-12.9-7.55-17.43Z" style="fill: rgb(255, 255, 255); transform-origin: 144.601px 213.085px;" id="ely6qhiwv96gb" class="animable"></path><path d="M176.14,149.94c9.6-2.74,19.57-5,29.61-4.55-10,.89-19.71,3.13-29.61,4.55Z" style="fill: rgb(255, 255, 255); transform-origin: 190.945px 147.636px;" id="el22yty94ear7" class="animable"></path><g id="elnl9ggmguqca"><path d="M176.13,175.89c-10.91,14-17.45,33.08-18.43,53.76-1.95,42,19.85,77.28,48.61,78.71s53.77-31.57,55.75-73.55c1-20.67-3.77-40.32-13.31-55.32-9.19-14.42-21.73-22.72-35.31-23.39a34.9,34.9,0,0,0-4.34,0C197.05,157,185.49,163.88,176.13,175.89Z" style="fill: rgb(235, 235, 235); opacity: 0.1; transform-origin: 209.885px 232.219px;" class="animable"></path></g><g id="elqt12mobogva"><g style="opacity: 0.2; transform-origin: 209.046px 232.253px;" class="animable"><path d="M231.32,161.74l-73.7,75.83c-.07-2.62,0-5.25.09-7.93a107.78,107.78,0,0,1,3.58-23.15l49-50.39c1,0,2.11,0,3.17,0A38,38,0,0,1,231.32,161.74Z" style="fill: rgb(255, 255, 255); transform-origin: 194.456px 196.835px;" id="ela2p21caq4y" class="animable"></path><path d="M257,197l-85.83,88.31a72.38,72.38,0,0,1-4.28-7.61l86.71-89.22A80.86,80.86,0,0,1,257,197Z" style="fill: rgb(255, 255, 255); transform-origin: 211.945px 236.895px;" id="elue3w44rsyyk" class="animable"></path><path d="M260.34,249.76a101.85,101.85,0,0,1-4.58,16.73l-39.95,41.1a36.3,36.3,0,0,1-9.5.77c-.9-.05-1.8-.12-2.69-.24Z" style="fill: rgb(255, 255, 255); transform-origin: 231.98px 279.083px;" id="elzvkx0kx0nz9" class="animable"></path><path d="M260.5,210.59,178.65,294.8c-.39-.38-.76-.78-1.12-1.19l82.59-85C260.27,209.27,260.38,209.94,260.5,210.59Z" style="fill: rgb(255, 255, 255); transform-origin: 219.015px 251.705px;" id="elocbd1k6ug0r" class="animable"></path></g></g><path d="M321.72,237.17l8-8.69c-12.86-11.9-43.13-28.52-65.81-6.47l8.24,8.48C292.47,210.7,320.53,236.09,321.72,237.17Z" style="fill: rgb(0, 255, 136); transform-origin: 296.815px 224.188px;" id="ellm6hg3c8us" class="animable"></path><path d="M398.26,331A88.58,88.58,0,0,1,327.11,228h0A88.51,88.51,0,1,1,398.26,331ZM338.75,230.16a76.56,76.56,0,1,0,70.13-62.71A76.74,76.74,0,0,0,338.75,230.16Z" style="fill: rgb(0, 255, 136); transform-origin: 414.18px 243.932px;" id="elaga2x29dry6" class="animable"></path><path d="M493,206.12c-6.09-20.22-41.56-42.45-41.56-42.45,14.36,3.53,30.2,10.71,37.9,12.31,4.32.89,30.52,3.57,30.52,3.57l.1,35.92s-7.2.4-9,5.11c-3.86,9.91-1.91,12.31-11.43,46.69C499.44,267.27,499,226.33,493,206.12Z" style="fill: rgb(0, 255, 136); transform-origin: 485.7px 215.47px;" id="elh16snd4k3rf" class="animable"></path><g id="elfngn3mh5xvl"><g style="opacity: 0.1; transform-origin: 422.818px 243.932px;" class="animable"><path d="M398.26,331A88.58,88.58,0,0,1,327.11,228h0A88.51,88.51,0,1,1,398.26,331ZM338.75,230.16a76.56,76.56,0,1,0,70.13-62.71A76.74,76.74,0,0,0,338.75,230.16Z" id="eliytmexbamxr" class="animable" style="transform-origin: 414.18px 243.932px;"></path><path d="M493,206.12c-6.09-20.22-41.56-42.45-41.56-42.45,14.36,3.53,30.2,10.71,37.9,12.31,4.32.89,30.52,3.57,30.52,3.57l.1,35.92s-7.2.4-9,5.11c-3.86,9.91-1.91,12.31-11.43,46.69C499.44,267.27,499,226.33,493,206.12Z" id="eliksyp2ej0c" class="animable" style="transform-origin: 485.7px 215.47px;"></path></g></g><path d="M390.39,329.71A88.58,88.58,0,0,1,319.24,226.8h0a88.55,88.55,0,1,1,71.15,102.92ZM330.88,228.92A76.61,76.61,0,1,0,401,166.22,76.74,76.74,0,0,0,330.88,228.92Z" style="fill: rgb(0, 255, 136); transform-origin: 406.368px 242.623px;" id="elgn8ntgabvll" class="animable"></path><path d="M485.08,204.88c-6.09-20.22-41.56-42.45-41.56-42.45,14.36,3.53,30.2,10.71,37.9,12.31,4.32.89,30.52,3.57,30.52,3.57l.1,32.89s-7.2,2.18-9,6.88c-3.87,9.91-1.92,13.57-11.44,48C491.57,266,491.17,225.09,485.08,204.88Z" style="fill: rgb(0, 255, 136); transform-origin: 477.78px 214.255px;" id="el77qp0t0l9ah" class="animable"></path><path d="M500.72,193.08c-.24,1.77-3.53,2.79-7.35,2.28s-6.74-2.35-6.5-4.12,3.53-2.79,7.35-2.28S501,191.32,500.72,193.08Z" style="fill: rgb(166, 166, 166); transform-origin: 493.797px 192.16px;" id="elgi9lakz6z5i" class="animable"></path><path d="M488.55,191.31c.31-.85,3.64-1.82,7.28-.83" style="fill: rgb(255, 255, 255); transform-origin: 492.19px 190.686px;" id="eleceegmfg7rb" class="animable"></path><path d="M365.83,168.87a43,43,0,0,1,26.4-8.79c-9,2.64-17.66,5.5-26.4,8.79Z" style="fill: rgb(255, 255, 255); transform-origin: 379.03px 164.474px;" id="el4fjm7yxvsqp" class="animable"></path><path d="M328.38,213c4.48-17.89,19.44-35.15,35.91-43.2-15.42,11-28.35,25.76-35.91,43.2Z" style="fill: rgb(255, 255, 255); transform-origin: 346.335px 191.4px;" id="elxjxx7995jn" class="animable"></path><g id="elknbi0btd76i"><path d="M334.53,228.92c-7.4,41.57,19.58,81.57,60.16,89.16s79.6-20.07,87-61.63-19.59-81.58-60.17-89.16A72.46,72.46,0,0,0,403,166.22C369.67,168.57,340.79,193.77,334.53,228.92Z" style="fill: rgb(235, 235, 235); opacity: 0.1; transform-origin: 408.11px 242.687px;" class="animable"></path></g><g id="el1zpnpp8tcd4"><g style="opacity: 0.2; transform-origin: 408.116px 242.667px;" class="animable"><path d="M482.84,246.22l-71.29,73a73.05,73.05,0,0,1-16.86-1.18,70.5,70.5,0,0,1-7.13-1.71L480,221.64A77.38,77.38,0,0,1,482.84,246.22Z" style="fill: rgb(255, 255, 255); transform-origin: 435.24px 270.469px;" id="elmskealtzyna" class="animable"></path><path d="M417.7,166.68l-83.77,85.84a78.46,78.46,0,0,1,.6-23.6c.34-1.94.77-3.87,1.25-5.76L389,168.59A72.67,72.67,0,0,1,403,166.22,71.43,71.43,0,0,1,417.7,166.68Z" style="fill: rgb(255, 255, 255); transform-origin: 375.506px 209.278px;" id="eluy0fo5atnfo" class="animable"></path><path d="M470.69,200.79l-103.49,106a71.05,71.05,0,0,1-6.79-5.13L465.7,193.83A73.6,73.6,0,0,1,470.69,200.79Z" style="fill: rgb(255, 255, 255); transform-origin: 415.55px 250.31px;" id="elg0i0arth0ge" class="animable"></path><path d="M438.31,172.55l-98.62,101a76.47,76.47,0,0,1-3.18-8.82l93.19-95.48A74.09,74.09,0,0,1,438.31,172.55Z" style="fill: rgb(255, 255, 255); transform-origin: 387.41px 221.4px;" id="elgrzr8tdihv6" class="animable"></path><path d="M481.88,255.39c-.05.35-.12.71-.18,1.06-.1.62-.22,1.24-.35,1.84l-58,59.44c-.93.2-1.88.38-2.84.54Z" style="fill: rgb(255, 255, 255); transform-origin: 451.195px 286.83px;" id="elr8zjw5k32h" class="animable"></path><path d="M459.81,187.33,354.09,295.65c-.38-.4-.75-.81-1.11-1.22L458.63,186.18Z" style="fill: rgb(255, 255, 255); transform-origin: 406.395px 240.915px;" id="el88dyy4xpk0i" class="animable"></path></g></g></g><defs>     <filter id="active" height="200%">         <feMorphology in="SourceAlpha" result="DILATED" operator="dilate" radius="2"></feMorphology>                <feFlood flood-color="#32DFEC" flood-opacity="1" result="PINK"></feFlood>        <feComposite in="PINK" in2="DILATED" operator="in" result="OUTLINE"></feComposite>        <feMerge>            <feMergeNode in="OUTLINE"></feMergeNode>            <feMergeNode in="SourceGraphic"></feMergeNode>        </feMerge>    </filter>    <filter id="hover" height="200%">        <feMorphology in="SourceAlpha" result="DILATED" operator="dilate" radius="2"></feMorphology>                <feFlood flood-color="#ff0000" flood-opacity="0.5" result="PINK"></feFlood>        <feComposite in="PINK" in2="DILATED" operator="in" result="OUTLINE"></feComposite>        <feMerge>            <feMergeNode in="OUTLINE"></feMergeNode>            <feMergeNode in="SourceGraphic"></feMergeNode>        </feMerge>            <feColorMatrix type="matrix" values="0   0   0   0   0                0   1   0   0   0                0   0   0   0   0                0   0   0   1   0 "></feColorMatrix>    </filter></defs></svg>